<?xml version="1.0" standalone="no"?><!DOCTYPE svg PUBLIC "-//W3C//DTD SVG 1.1//EN" "http://www.w3.org/Graphics/SVG/1.1/DTD/svg11.dtd"><svg t="1717568037872" class="icon" viewBox="0 0 1170 1024" version="1.1" xmlns="http://www.w3.org/2000/svg" p-id="2663" xmlns:xlink="http://www.w3.org/1999/xlink" width="146.25" height="128"><path d="M1042.285714 512q53.142857 0 90.571429 37.428571T1170.285714 640v219.428571q0 8-5.142857 13.142858t-13.142857 5.142857h-54.857143v36.571428q0 45.714286-32 77.714286t-77.714286 32-77.714285-32-32-77.714286v-36.571428H292.571429v36.571428q0 45.714286-32 77.714286t-77.714286 32-77.714286-32-32-77.714286v-36.571428h-54.857143q-8 0-13.142857-5.142857t-5.142857-13.142858v-219.428571q0-53.142857 37.428571-90.571429T128 512h16l60-239.428571q13.142857-53.714286 59.428571-90T365.714286 146.285714h73.142857V18.285714q0-8 5.142857-13.142857t13.142857-5.142857h256q8 0 13.142857 5.142857t5.142857 13.142857v128h73.142858q56 0 102.285714 36.285715T966.285714 272.571429l60 239.428571h16zM182.857143 786.285714q37.714286 0 64.571428-26.857143t26.857143-64.571428-26.857143-64.571429-64.571428-26.857143-64.571429 26.857143-26.857143 64.571429 26.857143 64.571428 64.571429 26.857143z m112-274.285714h580.571428l-50.857142-204q-1.142857-4.571429-8-10t-12-5.428571H365.714286q-5.142857 0-12 5.428571T345.714286 308z m692.571428 274.285714q37.714286 0 64.571429-26.857143t26.857143-64.571428-26.857143-64.571429-64.571429-26.857143-64.571428 26.857143-26.857143 64.571429 26.857143 64.571428 64.571428 26.857143z" p-id="2664" data-spm-anchor-id="a313x.manage_type_myprojects.0.i0.32203a812dzowG" class="" fill="#d4237a"></path></svg>